<svg width="20" height="21" viewBox="0 0 20 21" fill="none" xmlns="http://www.w3.org/2000/svg">
<path d="M16 1.65466C15.2044 1.65466 14.4413 1.97073 13.8787 2.53334C13.3161 3.09595 13 3.85901 13 4.65466V16.6547C13 17.4503 13.3161 18.2134 13.8787 18.776C14.4413 19.3386 15.2044 19.6547 16 19.6547C16.7956 19.6547 17.5587 19.3386 18.1213 18.776C18.6839 18.2134 19 17.4503 19 16.6547C19 15.859 18.6839 15.096 18.1213 14.5333C17.5587 13.9707 16.7956 13.6547 16 13.6547H4C3.20435 13.6547 2.44129 13.9707 1.87868 14.5333C1.31607 15.096 1 15.859 1 16.6547C1 17.4503 1.31607 18.2134 1.87868 18.776C2.44129 19.3386 3.20435 19.6547 4 19.6547C4.79565 19.6547 5.55871 19.3386 6.12132 18.776C6.68393 18.2134 7 17.4503 7 16.6547V4.65466C7 3.85901 6.68393 3.09595 6.12132 2.53334C5.55871 1.97073 4.79565 1.65466 4 1.65466C3.20435 1.65466 2.44129 1.97073 1.87868 2.53334C1.31607 3.09595 1 3.85901 1 4.65466C1 5.45031 1.31607 6.21337 1.87868 6.77598C2.44129 7.33859 3.20435 7.65466 4 7.65466H16C16.7956 7.65466 17.5587 7.33859 18.1213 6.77598C18.6839 6.21337 19 5.45031 19 4.65466C19 3.85901 18.6839 3.09595 18.1213 2.53334C17.5587 1.97073 16.7956 1.65466 16 1.65466Z" stroke="#4C4C4C" stroke-width="2" stroke-linecap="round" stroke-linejoin="round"/>
</svg>
