<svg width="36" height="34" viewBox="0 0 36 34" fill="none" xmlns="http://www.w3.org/2000/svg">
<rect width="36" height="34" rx="8" fill="#39C6A4"/>
<path d="M17.267 11.04V24H15.161V18.231H8.654V24H6.539V11.04H8.654V16.71H15.161V11.04H17.267ZM24.1174 17.25C24.5974 17.25 25.0174 17.193 25.3774 17.079C25.7374 16.959 26.0374 16.794 26.2774 16.584C26.5174 16.374 26.6974 16.125 26.8174 15.837C26.9374 15.543 26.9974 15.219 26.9974 14.865C26.9974 14.157 26.7634 13.617 26.2954 13.245C25.8274 12.873 25.1194 12.687 24.1714 12.687H22.4614V17.25H24.1174ZM30.2194 24H28.3384C27.9664 24 27.6964 23.856 27.5284 23.568L24.5044 19.203C24.4024 19.053 24.2914 18.945 24.1714 18.879C24.0514 18.813 23.8714 18.78 23.6314 18.78H22.4614V24H20.3554V11.04H24.1714C25.0234 11.04 25.7554 11.127 26.3674 11.301C26.9854 11.475 27.4924 11.724 27.8884 12.048C28.2844 12.366 28.5754 12.75 28.7614 13.2C28.9534 13.65 29.0494 14.151 29.0494 14.703C29.0494 15.153 28.9804 15.573 28.8424 15.963C28.7104 16.353 28.5154 16.707 28.2574 17.025C28.0054 17.343 27.6934 17.619 27.3214 17.853C26.9494 18.087 26.5264 18.27 26.0524 18.402C26.3104 18.558 26.5324 18.777 26.7184 19.059L30.2194 24Z" fill="#FBFEFD"/>
</svg>
