<svg width="24" height="25" viewBox="0 0 24 25" fill="none" xmlns="http://www.w3.org/2000/svg">
<path d="M21.21 16.5446C20.5738 18.0491 19.5788 19.3748 18.3119 20.4059C17.0449 21.437 15.5447 22.142 13.9424 22.4594C12.3401 22.7768 10.6844 22.6968 9.12012 22.2264C7.55585 21.7561 6.1306 20.9097 4.969 19.7613C3.80739 18.6129 2.94479 17.1974 2.45661 15.6386C1.96843 14.0798 1.86954 12.4251 2.16857 10.8193C2.46761 9.2134 3.15547 7.70525 4.17202 6.42665C5.18857 5.14805 6.50286 4.13794 7.99998 3.48462" stroke="#4C4C4C" stroke-width="2" stroke-linecap="round" stroke-linejoin="round"/>
<path d="M22 12.6547C22 11.3414 21.7413 10.0411 21.2388 8.82783C20.7362 7.61457 19.9997 6.51218 19.0711 5.5836C18.1425 4.65501 17.0401 3.91841 15.8268 3.41587C14.6136 2.91332 13.3132 2.65466 12 2.65466V12.6547H22Z" stroke="#4C4C4C" stroke-width="2" stroke-linecap="round" stroke-linejoin="round"/>
</svg>
