<svg width="24" height="25" viewBox="0 0 24 25" fill="none" xmlns="http://www.w3.org/2000/svg">
<g clip-path="url(#clip0_16_2932)">
<path d="M12 15.7047C13.6569 15.7047 15 14.3616 15 12.7047C15 11.0479 13.6569 9.70471 12 9.70471C10.3431 9.70471 9 11.0479 9 12.7047C9 14.3616 10.3431 15.7047 12 15.7047Z" stroke="#4C4C4C" stroke-width="2" stroke-linecap="round" stroke-linejoin="round"/>
<path d="M19.4 15.7047C19.2669 16.0063 19.2272 16.3409 19.286 16.6653C19.3448 16.9897 19.4995 17.289 19.73 17.5247L19.79 17.5847C19.976 17.7705 20.1235 17.991 20.2241 18.2338C20.3248 18.4766 20.3766 18.7369 20.3766 18.9997C20.3766 19.2625 20.3248 19.5228 20.2241 19.7656C20.1235 20.0084 19.976 20.229 19.79 20.4147C19.6043 20.6007 19.3837 20.7482 19.1409 20.8488C18.8981 20.9495 18.6378 21.0013 18.375 21.0013C18.1122 21.0013 17.8519 20.9495 17.6091 20.8488C17.3663 20.7482 17.1457 20.6007 16.96 20.4147L16.9 20.3547C16.6643 20.1242 16.365 19.9695 16.0406 19.9107C15.7162 19.8519 15.3816 19.8916 15.08 20.0247C14.7842 20.1515 14.532 20.362 14.3543 20.6302C14.1766 20.8985 14.0813 21.2129 14.08 21.5347V21.7047C14.08 22.2351 13.8693 22.7439 13.4942 23.1189C13.1191 23.494 12.6104 23.7047 12.08 23.7047C11.5496 23.7047 11.0409 23.494 10.6658 23.1189C10.2907 22.7439 10.08 22.2351 10.08 21.7047V21.6147C10.0723 21.2837 9.96512 20.9627 9.77251 20.6934C9.5799 20.4241 9.31074 20.219 9 20.1047C8.69838 19.9716 8.36381 19.9319 8.03941 19.9907C7.71502 20.0495 7.41568 20.2042 7.18 20.4347L7.12 20.4947C6.93425 20.6807 6.71368 20.8282 6.47088 20.9288C6.22808 21.0295 5.96783 21.0813 5.705 21.0813C5.44217 21.0813 5.18192 21.0295 4.93912 20.9288C4.69632 20.8282 4.47575 20.6807 4.29 20.4947C4.10405 20.309 3.95653 20.0884 3.85588 19.8456C3.75523 19.6028 3.70343 19.3425 3.70343 19.0797C3.70343 18.8169 3.75523 18.5566 3.85588 18.3138C3.95653 18.071 4.10405 17.8505 4.29 17.6647L4.35 17.6047C4.58054 17.369 4.73519 17.0697 4.794 16.7453C4.85282 16.4209 4.81312 16.0863 4.68 15.7847C4.55324 15.4889 4.34276 15.2367 4.07447 15.059C3.80618 14.8813 3.49179 14.786 3.17 14.7847H3C2.46957 14.7847 1.96086 14.574 1.58579 14.1989C1.21071 13.8239 1 13.3151 1 12.7847C1 12.2543 1.21071 11.7456 1.58579 11.3705C1.96086 10.9954 2.46957 10.7847 3 10.7847H3.09C3.42099 10.777 3.742 10.6698 4.0113 10.4772C4.28059 10.2846 4.48572 10.0154 4.6 9.70471C4.73312 9.4031 4.77282 9.06852 4.714 8.74412C4.65519 8.41973 4.50054 8.12039 4.27 7.88471L4.21 7.82471C4.02405 7.63897 3.87653 7.41839 3.77588 7.17559C3.67523 6.9328 3.62343 6.67254 3.62343 6.40971C3.62343 6.14688 3.67523 5.88663 3.77588 5.64383C3.87653 5.40104 4.02405 5.18046 4.21 4.99471C4.39575 4.80876 4.61632 4.66124 4.85912 4.56059C5.10192 4.45994 5.36217 4.40814 5.625 4.40814C5.88783 4.40814 6.14808 4.45994 6.39088 4.56059C6.63368 4.66124 6.85425 4.80876 7.04 4.99471L7.1 5.05471C7.33568 5.28525 7.63502 5.4399 7.95941 5.49872C8.28381 5.55754 8.61838 5.51783 8.92 5.38471H9C9.29577 5.25795 9.54802 5.04747 9.72569 4.77918C9.90337 4.51089 9.99872 4.1965 10 3.87471V3.70471C10 3.17428 10.2107 2.66557 10.5858 2.2905C10.9609 1.91543 11.4696 1.70471 12 1.70471C12.5304 1.70471 13.0391 1.91543 13.4142 2.2905C13.7893 2.66557 14 3.17428 14 3.70471V3.79471C14.0013 4.1165 14.0966 4.43089 14.2743 4.69918C14.452 4.96747 14.7042 5.17795 15 5.30471C15.3016 5.43783 15.6362 5.47754 15.9606 5.41872C16.285 5.3599 16.5843 5.20525 16.82 4.97471L16.88 4.91471C17.0657 4.72876 17.2863 4.58124 17.5291 4.48059C17.7719 4.37994 18.0322 4.32814 18.295 4.32814C18.5578 4.32814 18.8181 4.37994 19.0609 4.48059C19.3037 4.58124 19.5243 4.72876 19.71 4.91471C19.896 5.10046 20.0435 5.32104 20.1441 5.56383C20.2448 5.80663 20.2966 6.06688 20.2966 6.32971C20.2966 6.59254 20.2448 6.8528 20.1441 7.09559C20.0435 7.33839 19.896 7.55897 19.71 7.74471L19.65 7.80471C19.4195 8.04039 19.2648 8.33973 19.206 8.66412C19.1472 8.98852 19.1869 9.3231 19.32 9.62471V9.70471C19.4468 10.0005 19.6572 10.2527 19.9255 10.4304C20.1938 10.6081 20.5082 10.7034 20.83 10.7047H21C21.5304 10.7047 22.0391 10.9154 22.4142 11.2905C22.7893 11.6656 23 12.1743 23 12.7047C23 13.2351 22.7893 13.7439 22.4142 14.1189C22.0391 14.494 21.5304 14.7047 21 14.7047H20.91C20.5882 14.706 20.2738 14.8013 20.0055 14.979C19.7372 15.1567 19.5268 15.4089 19.4 15.7047Z" stroke="#4C4C4C" stroke-width="2" stroke-linecap="round" stroke-linejoin="round"/>
</g>
<defs>
<clipPath id="clip0_16_2932">
<rect width="24" height="24" fill="white" transform="translate(0 0.704712)"/>
</clipPath>
</defs>
</svg>
